<mxfile host="Electron" modified="2024-04-05T02:18:36.603Z" agent="Mozilla/5.0 (Macintosh; Intel Mac OS X 10_15_7) AppleWebKit/537.36 (KHTML, like Gecko) draw.io/21.3.7 Chrome/112.0.5615.204 Electron/24.5.0 Safari/537.36" etag="TDlWV3kV7MI_qVphSCXl" version="21.3.7" type="device">
  <diagram name="Page-1" id="OxWxnKdY4HFSlZalUMnR">
    <mxGraphModel dx="1026" dy="772" grid="1" gridSize="10" guides="1" tooltips="1" connect="1" arrows="1" fold="1" page="1" pageScale="1" pageWidth="850" pageHeight="1100" math="0" shadow="0">
      <root>
        <mxCell id="0" />
        <mxCell id="1" parent="0" />
        <mxCell id="bh3_AFWXGKfiDr-J9_Jp-1" value="" style="rounded=0;whiteSpace=wrap;html=1;fillColor=none;" vertex="1" parent="1">
          <mxGeometry x="180" y="70" width="530" height="430" as="geometry" />
        </mxCell>
        <mxCell id="bh3_AFWXGKfiDr-J9_Jp-2" value="&lt;font style=&quot;font-size: 19px;&quot;&gt;Multi-tie Dental App&lt;/font&gt;" style="text;html=1;strokeColor=none;fillColor=none;align=center;verticalAlign=middle;whiteSpace=wrap;rounded=0;" vertex="1" parent="1">
          <mxGeometry x="340" y="30" width="195" height="30" as="geometry" />
        </mxCell>
        <mxCell id="bh3_AFWXGKfiDr-J9_Jp-3" value="" style="rounded=1;whiteSpace=wrap;html=1;fillColor=#f8f7f7;" vertex="1" parent="1">
          <mxGeometry x="215" y="150" width="120" height="320" as="geometry" />
        </mxCell>
        <mxCell id="bh3_AFWXGKfiDr-J9_Jp-4" value="" style="rounded=1;whiteSpace=wrap;html=1;fillColor=#f8f7f7;" vertex="1" parent="1">
          <mxGeometry x="375" y="150" width="120" height="320" as="geometry" />
        </mxCell>
        <mxCell id="bh3_AFWXGKfiDr-J9_Jp-5" value="" style="rounded=1;whiteSpace=wrap;html=1;fillColor=#f8f7f7;" vertex="1" parent="1">
          <mxGeometry x="535" y="150" width="120" height="320" as="geometry" />
        </mxCell>
        <mxCell id="bh3_AFWXGKfiDr-J9_Jp-6" value="&lt;font style=&quot;font-size: 13px;&quot;&gt;Presentation Tier&lt;/font&gt;" style="text;html=1;strokeColor=none;fillColor=none;align=center;verticalAlign=middle;whiteSpace=wrap;rounded=0;" vertex="1" parent="1">
          <mxGeometry x="177.5" y="100" width="195" height="30" as="geometry" />
        </mxCell>
        <mxCell id="bh3_AFWXGKfiDr-J9_Jp-7" value="&lt;font style=&quot;font-size: 13px;&quot;&gt;Business Service Tier&lt;/font&gt;" style="text;html=1;strokeColor=none;fillColor=none;align=center;verticalAlign=middle;whiteSpace=wrap;rounded=0;" vertex="1" parent="1">
          <mxGeometry x="338" y="100" width="195" height="30" as="geometry" />
        </mxCell>
        <mxCell id="bh3_AFWXGKfiDr-J9_Jp-8" value="&lt;font style=&quot;font-size: 13px;&quot;&gt;Data Tier&lt;/font&gt;" style="text;html=1;strokeColor=none;fillColor=none;align=center;verticalAlign=middle;whiteSpace=wrap;rounded=0;" vertex="1" parent="1">
          <mxGeometry x="497.5" y="100" width="195" height="30" as="geometry" />
        </mxCell>
        <mxCell id="bh3_AFWXGKfiDr-J9_Jp-17" style="rounded=0;orthogonalLoop=1;jettySize=auto;html=1;exitX=1;exitY=0.5;exitDx=0;exitDy=0;entryX=0;entryY=0.5;entryDx=0;entryDy=0;" edge="1" parent="1" source="bh3_AFWXGKfiDr-J9_Jp-9" target="bh3_AFWXGKfiDr-J9_Jp-12">
          <mxGeometry relative="1" as="geometry" />
        </mxCell>
        <mxCell id="bh3_AFWXGKfiDr-J9_Jp-9" value="User" style="rounded=0;whiteSpace=wrap;html=1;" vertex="1" parent="1">
          <mxGeometry x="230" y="240" width="90" height="40" as="geometry" />
        </mxCell>
        <mxCell id="bh3_AFWXGKfiDr-J9_Jp-19" style="rounded=0;orthogonalLoop=1;jettySize=auto;html=1;exitX=1;exitY=0.5;exitDx=0;exitDy=0;entryX=0;entryY=0.5;entryDx=0;entryDy=0;" edge="1" parent="1" source="bh3_AFWXGKfiDr-J9_Jp-11" target="bh3_AFWXGKfiDr-J9_Jp-13">
          <mxGeometry relative="1" as="geometry" />
        </mxCell>
        <mxCell id="bh3_AFWXGKfiDr-J9_Jp-11" value="Appointment" style="rounded=0;whiteSpace=wrap;html=1;" vertex="1" parent="1">
          <mxGeometry x="230" y="290" width="90" height="40" as="geometry" />
        </mxCell>
        <mxCell id="bh3_AFWXGKfiDr-J9_Jp-20" style="rounded=0;orthogonalLoop=1;jettySize=auto;html=1;entryX=0;entryY=0;entryDx=0;entryDy=0;" edge="1" parent="1" source="bh3_AFWXGKfiDr-J9_Jp-12" target="bh3_AFWXGKfiDr-J9_Jp-16">
          <mxGeometry relative="1" as="geometry" />
        </mxCell>
        <mxCell id="bh3_AFWXGKfiDr-J9_Jp-12" value="User Service" style="rounded=0;whiteSpace=wrap;html=1;" vertex="1" parent="1">
          <mxGeometry x="392.5" y="190" width="90" height="40" as="geometry" />
        </mxCell>
        <mxCell id="bh3_AFWXGKfiDr-J9_Jp-15" style="edgeStyle=orthogonalEdgeStyle;rounded=0;orthogonalLoop=1;jettySize=auto;html=1;exitX=0.5;exitY=1;exitDx=0;exitDy=0;entryX=0.5;entryY=0;entryDx=0;entryDy=0;" edge="1" parent="1" source="bh3_AFWXGKfiDr-J9_Jp-13" target="bh3_AFWXGKfiDr-J9_Jp-14">
          <mxGeometry relative="1" as="geometry" />
        </mxCell>
        <mxCell id="bh3_AFWXGKfiDr-J9_Jp-21" style="rounded=0;orthogonalLoop=1;jettySize=auto;html=1;entryX=0;entryY=0.25;entryDx=0;entryDy=0;" edge="1" parent="1" source="bh3_AFWXGKfiDr-J9_Jp-13" target="bh3_AFWXGKfiDr-J9_Jp-16">
          <mxGeometry relative="1" as="geometry" />
        </mxCell>
        <mxCell id="bh3_AFWXGKfiDr-J9_Jp-13" value="Appointment Service" style="rounded=0;whiteSpace=wrap;html=1;" vertex="1" parent="1">
          <mxGeometry x="392.5" y="240" width="90" height="40" as="geometry" />
        </mxCell>
        <mxCell id="bh3_AFWXGKfiDr-J9_Jp-22" style="rounded=0;orthogonalLoop=1;jettySize=auto;html=1;exitX=1;exitY=0.5;exitDx=0;exitDy=0;entryX=0;entryY=0.5;entryDx=0;entryDy=0;" edge="1" parent="1" source="bh3_AFWXGKfiDr-J9_Jp-14" target="bh3_AFWXGKfiDr-J9_Jp-16">
          <mxGeometry relative="1" as="geometry" />
        </mxCell>
        <mxCell id="bh3_AFWXGKfiDr-J9_Jp-14" value="Surgery Service" style="rounded=0;whiteSpace=wrap;html=1;" vertex="1" parent="1">
          <mxGeometry x="392.5" y="300" width="90" height="40" as="geometry" />
        </mxCell>
        <mxCell id="bh3_AFWXGKfiDr-J9_Jp-16" value="DB Service" style="rounded=0;whiteSpace=wrap;html=1;" vertex="1" parent="1">
          <mxGeometry x="550" y="265" width="90" height="40" as="geometry" />
        </mxCell>
        <mxCell id="bh3_AFWXGKfiDr-J9_Jp-28" style="rounded=0;orthogonalLoop=1;jettySize=auto;html=1;entryX=0;entryY=0.25;entryDx=0;entryDy=0;" edge="1" parent="1" source="bh3_AFWXGKfiDr-J9_Jp-23" target="bh3_AFWXGKfiDr-J9_Jp-3">
          <mxGeometry relative="1" as="geometry" />
        </mxCell>
        <mxCell id="bh3_AFWXGKfiDr-J9_Jp-23" value="Patient" style="sketch=0;outlineConnect=0;fontColor=#232F3E;gradientColor=none;strokeColor=#232F3E;fillColor=#ffffff;dashed=0;verticalLabelPosition=bottom;verticalAlign=top;align=center;html=1;fontSize=12;fontStyle=0;aspect=fixed;shape=mxgraph.aws4.resourceIcon;resIcon=mxgraph.aws4.client;" vertex="1" parent="1">
          <mxGeometry x="50" y="130" width="60" height="60" as="geometry" />
        </mxCell>
        <mxCell id="bh3_AFWXGKfiDr-J9_Jp-29" style="rounded=0;orthogonalLoop=1;jettySize=auto;html=1;" edge="1" parent="1" source="bh3_AFWXGKfiDr-J9_Jp-26" target="bh3_AFWXGKfiDr-J9_Jp-3">
          <mxGeometry relative="1" as="geometry" />
        </mxCell>
        <mxCell id="bh3_AFWXGKfiDr-J9_Jp-26" value="Dentist" style="sketch=0;outlineConnect=0;fontColor=#232F3E;gradientColor=none;strokeColor=#232F3E;fillColor=#ffffff;dashed=0;verticalLabelPosition=bottom;verticalAlign=top;align=center;html=1;fontSize=12;fontStyle=0;aspect=fixed;shape=mxgraph.aws4.resourceIcon;resIcon=mxgraph.aws4.client;" vertex="1" parent="1">
          <mxGeometry x="50" y="240" width="60" height="60" as="geometry" />
        </mxCell>
        <mxCell id="bh3_AFWXGKfiDr-J9_Jp-30" style="rounded=0;orthogonalLoop=1;jettySize=auto;html=1;entryX=0;entryY=0.75;entryDx=0;entryDy=0;" edge="1" parent="1" source="bh3_AFWXGKfiDr-J9_Jp-27" target="bh3_AFWXGKfiDr-J9_Jp-3">
          <mxGeometry relative="1" as="geometry" />
        </mxCell>
        <mxCell id="bh3_AFWXGKfiDr-J9_Jp-27" value="Office Manager" style="sketch=0;outlineConnect=0;fontColor=#232F3E;gradientColor=none;strokeColor=#232F3E;fillColor=#ffffff;dashed=0;verticalLabelPosition=bottom;verticalAlign=top;align=center;html=1;fontSize=12;fontStyle=0;aspect=fixed;shape=mxgraph.aws4.resourceIcon;resIcon=mxgraph.aws4.client;" vertex="1" parent="1">
          <mxGeometry x="50" y="350" width="60" height="60" as="geometry" />
        </mxCell>
      </root>
    </mxGraphModel>
  </diagram>
</mxfile>
